<svg width="442" height="381" viewBox="0 0 442 381" fill="none" xmlns="http://www.w3.org/2000/svg">
<path d="M246.638 268.585L230.292 282.853L198.254 217.518C166.484 222.967 136.512 224.712 110.588 218.121C101.811 215.921 96.4453 206.883 98.6042 197.936C98.7051 197.518 98.8218 197.104 98.9543 196.695C102.057 187.256 110.178 180.577 116.577 170.195L163.317 170.903L158.096 188.864L203.5 183.005C212.631 181.827 220.97 188.417 222.125 197.725C222.186 198.216 222.226 198.71 222.245 199.205L246.638 268.585Z" fill="#2F2E41"/>
<path d="M180.118 320.222L163.527 313.942L186.297 245.75C155.363 236.706 132.029 222.139 111.656 204.848C104.745 199.022 99.5615 191.539 105.448 184.451C105.723 184.12 106.01 183.799 106.31 183.49C113.26 176.374 130.901 177.743 141.228 171.227L164.323 195.814L162.876 202.401L206.235 217.057C214.955 220.004 219.536 229.58 216.467 238.446C216.305 238.914 216.123 239.374 215.922 239.827L180.118 320.222Z" fill="#2F2E41"/>
<path d="M237.363 292.344L249.652 283.691L253.043 289.143L270.374 289.993C271.23 290.035 272.05 290.349 272.714 290.889C273.379 291.428 273.853 292.165 274.068 292.993C274.282 293.82 274.226 294.694 273.907 295.487C273.588 296.28 273.023 296.951 272.295 297.402L257.102 306.799L251.129 303.026L253.461 309.052L247.733 312.595L237.363 292.344Z" fill="#2F2E41"/>
<path d="M160.498 322.214L174.378 327.999L171.548 333.761L180.031 348.853C180.45 349.599 180.619 350.458 180.514 351.306C180.409 352.154 180.034 352.946 179.445 353.567C178.856 354.188 178.084 354.605 177.24 354.757C176.397 354.909 175.527 354.788 174.757 354.412L158.702 346.569L158.734 339.518L154.854 344.689L148.8 341.732L160.498 322.214Z" fill="#2F2E41"/>
<path d="M243.247 301.605L251.462 297.939L241.173 263.829L229.049 269.239L243.247 301.605Z" fill="#FFB6B6"/>
<path d="M251.61 56.7061C251.13 57.91 250.392 58.9943 249.446 59.8828C248.501 60.7713 247.372 61.4423 246.138 61.8485C244.905 62.2548 243.597 62.3864 242.307 62.234C241.016 62.0817 239.776 61.6492 238.671 60.9669L179.851 101.826L178.227 85.5431L236.061 48.1807C237.334 46.4068 239.214 45.1599 241.347 44.6764C243.48 44.1928 245.717 44.5061 247.633 45.557C249.55 46.6078 251.013 48.3232 251.746 50.3781C252.479 52.4329 252.431 54.6845 251.61 56.7061Z" fill="#FFB6B6"/>
<path d="M116.31 144.77L116.952 156.93C116.952 156.93 115.057 167.702 116.615 170.027C118.162 172.34 160.627 175.781 160.627 175.781C160.627 175.781 159.296 157.645 161.698 144.527L116.31 144.77Z" fill="#FFB6B6"/>
<path d="M134.559 62.9341C145.041 62.9341 153.538 54.4615 153.538 44.0099C153.538 33.5583 145.041 25.0856 134.559 25.0856C124.078 25.0856 115.581 33.5583 115.581 44.0099C115.581 54.4615 124.078 62.9341 134.559 62.9341Z" fill="#FFB6B6"/>
<path d="M160.773 326.974L168.849 330.918L188.289 301.044L176.37 295.223L160.773 326.974Z" fill="#FFB6B6"/>
<path d="M133.355 217.803C132.267 217.096 131.347 216.159 130.661 215.059C129.974 213.959 129.538 212.723 129.383 211.437C129.228 210.15 129.358 208.846 129.763 207.615C130.168 206.384 130.839 205.257 131.729 204.313L103.211 138.733L119.539 140.37L144.815 204.294C146.307 205.889 147.16 207.974 147.213 210.154C147.266 212.335 146.515 214.459 145.102 216.124C143.69 217.789 141.714 218.88 139.549 219.189C137.384 219.498 135.18 219.005 133.355 217.803Z" fill="#FFB6B6"/>
<path d="M119.916 82.4681C119.916 82.4681 113.547 91.852 123.541 100.156C133.535 108.46 174.044 106.808 180.581 106.737C187.119 106.666 217.112 75.7272 217.112 75.7272L216.916 57.8593L180.703 79.2848L119.916 82.4681Z" fill="#F4B10B"/>
<path d="M123.433 69.7658L140.835 71.8072C141.569 71.8933 142.258 72.2055 142.805 72.7003C143.353 73.1951 143.732 73.848 143.889 74.5677L146.657 87.1949L163.908 107.452C163.908 107.452 170.103 119.034 167.78 132.16C166.382 140.065 163.963 147.755 160.585 155.04C160.585 155.04 118.159 172.341 116.611 170.025C115.062 167.708 114.559 157.187 114.559 157.187L109.101 96.6385C108.789 93.4483 109.188 90.2286 110.271 87.2105C111.353 84.1924 113.092 81.4505 115.363 79.1815C116.74 77.8308 118.099 76.8854 119.205 76.8854C121.704 76.8014 121.384 71.1936 123.433 69.7658Z" fill="#F4B10B"/>
<path d="M134.108 83.9857C134.108 83.9857 126.145 75.9026 116.002 84.0265C105.86 92.1504 99.4628 132.07 98.2385 138.474C97.0142 144.877 121.488 180.319 121.488 180.319L139.091 183.665L125.2 144.028L134.108 83.9857Z" fill="#F4B10B"/>
<path d="M418.182 45.6781H240.06C238.53 45.6805 237.063 46.2878 235.981 47.3668C234.899 48.4458 234.29 49.9086 234.287 51.4345V171.287C234.289 172.814 234.897 174.277 235.98 175.356C237.062 176.435 238.529 177.042 240.06 177.044H418.182C419.713 177.042 421.181 176.435 422.263 175.356C423.345 174.277 423.954 172.814 423.956 171.287V51.4345C423.953 49.9086 423.344 48.4458 422.262 47.3668C421.18 46.2878 419.713 45.6805 418.182 45.6781Z" fill="#3F3D56"/>
<path d="M454.265 237.042C454.265 233.611 453.11 230.827 451.691 230.821H64.9702C63.5453 230.827 62.3963 233.611 62.3899 237.042V378.26C62.39 378.578 62.2711 378.885 62.0565 379.121C61.8419 379.357 61.5469 379.505 61.229 379.536C60.191 379.635 59.153 379.728 58.1151 379.813C58.0894 379.813 58.0637 379.82 58.038 379.82C57.4732 379.871 56.9084 379.909 56.3435 379.954H56.3371C56.0465 379.418 55.7593 378.878 55.4755 378.333C55.3796 378.149 55.3294 377.945 55.3293 377.738V228.971C55.3293 228.024 55.3679 227.07 55.432 226.129C55.5237 224.837 55.6844 223.551 55.9134 222.276C56.9982 216.33 59.4502 212.305 62.2359 212.292H454.419C454.826 212.295 455.228 212.379 455.6 212.541C456.148 212.783 456.643 213.129 457.057 213.559C457.62 214.143 458.102 214.799 458.489 215.511C459.862 217.924 460.845 221.521 461.191 225.707C461.191 225.745 461.198 225.784 461.198 225.822C461.287 226.859 461.332 227.915 461.326 228.971L461.416 242.687L461.474 250.866L461.647 276.532L461.711 285.646L461.993 379.218C461.993 379.557 461.858 379.883 461.617 380.123C461.377 380.363 461.05 380.498 460.71 380.498H455.549C455.209 380.498 454.882 380.363 454.641 380.123C454.401 379.883 454.265 379.557 454.265 379.218V237.042Z" fill="#E6E6E6"/>
<path d="M404.633 369.721L399.684 361.791L398.696 366.323C398.523 367.116 398.349 367.923 398.189 368.723C396.783 367.526 395.288 366.419 393.824 365.356C389.331 362.105 384.84 358.849 380.351 355.589L381.757 363.718C382.624 368.723 383.529 373.83 385.672 378.406C385.91 378.925 386.167 379.437 386.443 379.936H407.329C407.497 379.472 407.613 378.992 407.676 378.502C407.681 378.471 407.683 378.439 407.682 378.406C408.01 375.302 406.289 372.377 404.633 369.721Z" fill="#F0F0F0"/>
<path d="M122.21 369.721L117.261 361.791L116.272 366.323C116.099 367.116 115.926 367.923 115.765 368.723C114.36 367.526 112.864 366.419 111.401 365.356C106.908 362.105 102.417 358.849 97.9277 355.589L99.3334 363.718C100.2 368.723 101.105 373.83 103.249 378.406C103.486 378.925 103.743 379.437 104.019 379.936H124.906C125.074 379.472 125.19 378.992 125.252 378.502C125.258 378.471 125.26 378.439 125.259 378.406C125.586 375.302 123.866 372.377 122.21 369.721Z" fill="#F0F0F0"/>
<path d="M519.234 380.803L342.238 381C342.035 380.999 341.841 380.919 341.699 380.776C341.556 380.633 341.476 380.44 341.476 380.238C341.476 380.036 341.556 379.843 341.699 379.7C341.841 379.557 342.035 379.476 342.238 379.476L519.234 379.279C519.436 379.28 519.63 379.36 519.773 379.503C519.915 379.646 519.996 379.84 519.996 380.041C519.996 380.243 519.915 380.436 519.773 380.579C519.63 380.722 519.436 380.803 519.234 380.803Z" fill="#CACACA"/>
<path d="M177.758 380.803L0.7621 381C0.5597 380.999 0.365899 380.919 0.223099 380.776C0.0801987 380.633 0 380.44 0 380.238C0 380.036 0.0801987 379.843 0.223099 379.7C0.365899 379.557 0.5597 379.476 0.7621 379.476L177.758 379.279C177.961 379.28 178.154 379.36 178.297 379.503C178.44 379.646 178.52 379.84 178.52 380.041C178.52 380.243 178.44 380.436 178.297 380.579C178.154 380.722 177.961 380.803 177.758 380.803Z" fill="#CACACA"/>
<path d="M114.49 27.1405C111.428 28.0493 108.572 25.4956 106.441 23.0763L107.198 23.9723C102.185 27.4925 99.1874 33.2272 97.2426 39.0322C95.2977 44.8309 94.2129 50.9048 92.0177 56.6203C89.8225 62.3293 86.2794 67.8528 80.8556 70.7009C73.5896 74.5155 64.6868 72.781 56.9587 70.0289C56.856 69.9905 56.7597 69.9585 56.657 69.9201C59.7871 64.0901 61.7039 57.6899 62.2927 51.1032C59.1135 57.2921 54.5286 62.6551 48.9032 66.7647C43.8536 64.4759 38.998 61.7832 34.3841 58.7132C31.3994 56.7227 28.2542 54.1497 27.9076 50.5848C27.5546 47.0454 30.2055 43.8133 33.3314 42.1108C36.4573 40.4083 40.0518 39.8323 43.4666 38.8082C46.8749 37.7906 50.3539 36.1201 52.1447 33.048C56.2719 25.982 49.3269 16.0168 53.7558 9.13006C55.9381 5.7443 60.1745 4.38744 64.1027 3.44659C70.0986 2.01654 76.1846 0.992293 82.319 0.380856C87.7043 -0.156769 93.2694 -0.355176 98.3915 1.3729C103.514 3.10098 108.161 7.11397 109.258 12.4006C112.249 13.9687 115.414 15.7032 117.019 18.6793C118.623 21.649 117.731 26.1804 114.49 27.1405Z" fill="#2F2E41"/>
<path d="M109.919 25.9498C106.987 29.612 105.391 33.5724 105.391 35.9441C99.301 47.0436 108.01 56.5776 119.142 62.6505C123.582 65.0854 128.709 65.9766 133.713 65.1834L134.179 63.2011L134.81 64.9867C134.81 64.9867 142.057 88.8553 144.448 90.2555C143.541 86.0077 142.502 66.3398 141.997 62.1942C141.297 56.5518 143.735 48.1518 145.493 43.0435C146.583 39.8952 147.142 36.5885 147.148 33.2579V33.1123L148.86 38.5951L155.092 35.9441C153.933 29.3128 155.092 21.7847 141.192 22.4376C133.674 17.2819 127.053 16.4966 121.615 17.9589C120.913 16.8769 116.866 18.9034 115.696 18.3337" fill="#2F2E41"/>
<path d="M349.181 148.112H307.511C306.921 148.113 306.356 148.348 305.94 148.764C305.524 149.18 305.29 149.744 305.291 150.332V215.969H351.406V150.332C351.407 150.04 351.349 149.752 351.237 149.482C351.126 149.213 350.962 148.968 350.755 148.762C350.548 148.556 350.303 148.393 350.033 148.281C349.763 148.17 349.473 148.112 349.181 148.112ZM328.486 185.407C327.183 185.401 325.935 184.882 325.013 183.963C324.092 183.044 323.572 181.8 323.565 180.5V172.93C323.567 171.629 324.086 170.383 325.009 169.464C325.931 168.545 327.182 168.029 328.486 168.029C329.79 168.029 331.041 168.545 331.963 169.464C332.886 170.383 333.405 171.629 333.406 172.93V180.5C333.4 181.8 332.88 183.044 331.959 183.963C331.037 184.882 329.789 185.401 328.486 185.407Z" fill="#2F2E41"/>
<path d="M416.696 49.8359H241.548C240.729 49.8377 239.944 50.1635 239.365 50.7418C238.786 51.3202 238.461 52.1038 238.461 52.9209V169.803C238.462 170.619 238.788 171.401 239.367 171.978C239.945 172.555 240.73 172.88 241.548 172.882H416.696C417.514 172.88 418.299 172.555 418.877 171.978C419.456 171.401 419.782 170.619 419.783 169.803V52.9209C419.783 52.1038 419.458 51.3202 418.879 50.7418C418.3 50.1635 417.515 49.8377 416.696 49.8359Z" fill="white"/>
<path d="M419.783 52.9209V169.803C419.782 170.619 419.456 171.401 418.877 171.978C418.298 172.555 417.514 172.88 416.696 172.882H354.935C348.102 166.564 342.497 159.043 338.4 150.698C338.131 150.161 337.874 149.617 337.63 149.066C333.897 140.989 331.637 132.313 330.954 123.446C330.91 122.902 330.871 122.358 330.845 121.807C330.762 120.399 330.723 118.972 330.723 117.538C330.711 108.003 332.517 98.553 336.045 89.6906C336.256 89.1402 336.481 88.5961 336.712 88.0521C343.811 71.4195 356.64 57.8654 372.882 49.8359H416.696C417.515 49.8377 418.3 50.1635 418.879 50.7418C419.458 51.3202 419.783 52.1038 419.783 52.9209Z" fill="#F4B10B"/>
<path d="M407.891 65.9397H244.007C243.836 65.9359 243.674 65.8658 243.555 65.7444C243.436 65.6229 243.369 65.4597 243.369 65.2898C243.369 65.1199 243.436 64.9567 243.555 64.8353C243.674 64.7138 243.836 64.6437 244.007 64.64H407.891C408.062 64.6437 408.224 64.7138 408.343 64.8353C408.462 64.9567 408.529 65.1199 408.529 65.2898C408.529 65.4597 408.462 65.6229 408.343 65.7444C408.224 65.8658 408.062 65.9359 407.891 65.9397Z" fill="#CACACA"/>
<path d="M255.162 61.3219C257.272 61.3219 258.982 59.5788 258.982 57.4286C258.982 55.2784 257.272 53.5353 255.162 53.5353C253.053 53.5353 251.343 55.2784 251.343 57.4286C251.343 59.5788 253.053 61.3219 255.162 61.3219Z" fill="#3F3D56"/>
<path d="M268.357 61.3219C270.466 61.3219 272.176 59.5788 272.176 57.4286C272.176 55.2784 270.466 53.5353 268.357 53.5353C266.247 53.5353 264.537 55.2784 264.537 57.4286C264.537 59.5788 266.247 61.3219 268.357 61.3219Z" fill="#3F3D56"/>
<path d="M281.551 61.3219C283.66 61.3219 285.37 59.5788 285.37 57.4286C285.37 55.2784 283.66 53.5353 281.551 53.5353C279.442 53.5353 277.732 55.2784 277.732 57.4286C277.732 59.5788 279.442 61.3219 281.551 61.3219Z" fill="#3F3D56"/>
<path d="M399.947 54.5003H390.575C390.389 54.504 390.212 54.5801 390.082 54.7124C389.952 54.8447 389.879 55.0226 389.879 55.2079C389.879 55.3932 389.952 55.5711 390.082 55.7035C390.212 55.8358 390.389 55.9119 390.575 55.9156H399.947C400.133 55.9119 400.31 55.8358 400.44 55.7035C400.57 55.5711 400.643 55.3932 400.643 55.2079C400.643 55.0226 400.57 54.8447 400.44 54.7124C400.31 54.5801 400.133 54.504 399.947 54.5003Z" fill="#3F3D56"/>
<path d="M399.947 57.1566H390.575C390.389 57.1602 390.212 57.2364 390.082 57.3687C389.952 57.501 389.879 57.6789 389.879 57.8642C389.879 58.0495 389.952 58.2274 390.082 58.3597C390.212 58.492 390.389 58.5682 390.575 58.5718H399.947C400.133 58.5682 400.31 58.492 400.44 58.3597C400.57 58.2274 400.643 58.0495 400.643 57.8642C400.643 57.6789 400.57 57.501 400.44 57.3687C400.31 57.2364 400.133 57.1602 399.947 57.1566Z" fill="#3F3D56"/>
<path d="M399.947 59.8093H390.575C390.389 59.813 390.212 59.8891 390.082 60.0214C389.952 60.1538 389.879 60.3317 389.879 60.517C389.879 60.7023 389.952 60.8802 390.082 61.0125C390.212 61.1448 390.389 61.2209 390.575 61.2246H399.947C400.133 61.2209 400.31 61.1448 400.44 61.0125C400.57 60.8802 400.643 60.7023 400.643 60.517C400.643 60.3317 400.57 60.1538 400.44 60.0214C400.31 59.8891 400.133 59.813 399.947 59.8093Z" fill="#3F3D56"/>
<path d="M292.966 103.905H272.488C270.95 103.905 269.703 105.148 269.703 106.682C269.703 108.216 270.95 109.459 272.488 109.459H292.966C294.504 109.459 295.751 108.216 295.751 106.682C295.751 105.148 294.504 103.905 292.966 103.905Z" fill="#F4B10B"/>
<path d="M306.195 115.013H259.259C257.721 115.013 256.474 116.257 256.474 117.79C256.474 119.324 257.721 120.567 259.259 120.567H306.195C307.733 120.567 308.98 119.324 308.98 117.79C308.98 116.257 307.733 115.013 306.195 115.013Z" fill="#E6E6E6"/>
<path d="M306.195 126.121H259.259C257.721 126.121 256.474 127.365 256.474 128.899C256.474 130.432 257.721 131.676 259.259 131.676H306.195C307.733 131.676 308.98 130.432 308.98 128.899C308.98 127.365 307.733 126.121 306.195 126.121Z" fill="#E6E6E6"/>
<path d="M260.759 166.181C260.763 168.468 260.355 170.738 259.553 172.882H241.548C240.73 172.88 239.945 172.555 239.367 171.978C238.788 171.401 238.462 170.619 238.461 169.803V147.223C239.467 147.061 240.484 146.979 241.503 146.98C244.032 146.979 246.536 147.476 248.873 148.441C251.209 149.406 253.332 150.82 255.12 152.603C256.908 154.386 258.326 156.503 259.294 158.832C260.262 161.162 260.76 163.659 260.759 166.181Z" fill="#F4B10B"/>
<path opacity="0.2" d="M419.944 89.6906V88.0521H392.401V69.0624H390.764V88.0521H359.197V69.0624H357.56V88.0521H336.712C336.481 88.5961 336.256 89.1402 336.045 89.6906H357.56V121.807H330.845C330.871 122.358 330.91 122.902 330.955 123.446H357.56V149.066H337.63C337.874 149.617 338.131 150.161 338.4 150.698H357.56V172.235H359.197V150.698H390.764V172.235H392.401V150.698H419.944V149.066H392.401V123.446H419.944V121.807H392.401V89.6906H419.944ZM390.764 149.066H359.197V123.446H390.764V149.066ZM390.764 121.807H359.197V89.6906H390.764V121.807Z" fill="black"/>
<path d="M397.768 160.756C397.416 160.772 397.068 160.68 396.771 160.492C396.474 160.304 396.242 160.03 396.106 159.707C395.971 159.383 395.938 159.026 396.013 158.683C396.088 158.341 396.266 158.029 396.524 157.791L396.642 157.325C396.626 157.288 396.611 157.251 396.595 157.213C396.241 156.38 395.648 155.669 394.89 155.17C394.133 154.672 393.244 154.408 392.336 154.411C391.429 154.414 390.542 154.685 389.788 155.189C389.034 155.693 388.446 156.409 388.099 157.245C386.709 160.582 384.94 163.925 384.504 167.454C384.312 169.014 384.393 170.595 384.743 172.127C381.479 165.028 379.784 157.311 379.773 149.501C379.773 147.541 379.882 145.583 380.1 143.636C380.281 142.039 380.532 140.454 380.852 138.88C382.602 130.34 386.358 122.335 391.812 115.524C394.452 114.087 396.587 111.879 397.929 109.195C398.415 108.231 398.759 107.201 398.949 106.138C398.652 106.177 398.349 106.202 398.051 106.221C397.958 106.226 397.861 106.231 397.768 106.236L397.733 106.237C397.406 106.252 397.081 106.172 396.798 106.007C396.516 105.842 396.287 105.599 396.139 105.307C395.992 105.016 395.932 104.688 395.967 104.363C396.002 104.038 396.131 103.73 396.337 103.477C396.466 103.319 396.594 103.161 396.723 103.003C396.919 102.76 397.119 102.522 397.314 102.278C397.336 102.255 397.358 102.231 397.377 102.205C397.602 101.928 397.827 101.655 398.051 101.378C397.641 100.743 397.09 100.212 396.44 99.8248C394.19 98.5104 391.085 99.4207 389.459 101.451C387.828 103.48 387.521 106.328 388.087 108.864C388.644 111.022 389.565 113.07 390.811 114.92C390.689 115.076 390.562 115.227 390.44 115.382C388.209 118.243 386.265 121.315 384.635 124.554C385.031 120.925 384.558 117.255 383.254 113.844C381.933 110.666 379.456 107.989 377.275 105.241C374.655 101.941 369.283 103.381 368.822 107.565C368.817 107.605 368.813 107.646 368.809 107.686C369.133 107.869 369.45 108.062 369.76 108.267C370.15 108.526 370.452 108.897 370.627 109.331C370.801 109.765 370.84 110.241 370.739 110.697C370.638 111.154 370.4 111.569 370.058 111.889C369.716 112.208 369.285 112.417 368.822 112.488L368.775 112.496C368.89 113.66 369.094 114.814 369.385 115.947C370.227 119.111 371.717 122.067 373.759 124.631C375.801 127.194 378.352 129.309 381.253 130.843C381.443 130.94 381.629 131.037 381.819 131.13C380.181 135.758 379.154 140.579 378.763 145.471C378.541 148.357 378.555 151.256 378.802 154.14L378.787 154.038C378.162 150.831 376.447 147.937 373.93 145.846C370.192 142.784 364.91 141.656 360.878 139.195C360.449 138.921 359.951 138.774 359.442 138.773C358.932 138.772 358.433 138.916 358.003 139.188C357.573 139.46 357.23 139.849 357.015 140.31C356.8 140.77 356.721 141.282 356.788 141.785C356.793 141.821 356.799 141.857 356.804 141.893C357.405 142.137 357.991 142.418 358.557 142.735C358.881 142.917 359.198 143.111 359.508 143.315C359.898 143.575 360.2 143.946 360.375 144.38C360.549 144.813 360.589 145.29 360.487 145.746C360.386 146.202 360.148 146.618 359.806 146.937C359.464 147.257 359.033 147.466 358.57 147.537L358.523 147.544C358.488 147.549 358.459 147.554 358.425 147.559C359.452 150.005 360.894 152.255 362.687 154.213C364.902 156.583 367.579 158.477 370.554 159.779C373.529 161.08 376.739 161.762 379.988 161.783H379.993C380.875 165.604 382.153 169.324 383.806 172.882H397.426C397.475 172.731 397.519 172.575 397.563 172.424C396.302 172.503 395.037 172.428 393.794 172.2C394.805 170.964 395.815 169.717 396.826 168.481C396.848 168.458 396.869 168.434 396.889 168.408C397.402 167.775 397.919 167.147 398.432 166.514C398.459 164.574 398.236 162.638 397.768 160.756ZM382.17 130.161L382.178 130.152L382.17 130.171V130.161ZM379.153 157.28L379.036 157.017C379.041 156.827 379.041 156.638 379.036 156.443C379.036 156.389 379.026 156.336 379.026 156.282C379.07 156.618 379.109 156.954 379.158 157.29L379.153 157.28Z" fill="#2F2E41"/>
</svg>
