<svg width="28" height="27" viewBox="0 0 28 27" fill="none" xmlns="http://www.w3.org/2000/svg">
<path d="M18.1044 13.5002C18.1044 11.4752 16.4776 9.85517 14.444 9.85517C12.4105 9.85517 10.7836 11.4752 10.7836 13.5002C10.7836 15.5251 12.4105 17.1451 14.444 17.1451C16.4776 17.1451 18.1044 15.5251 18.1044 13.5002ZM20.0024 13.5002C20.0024 16.6051 17.5621 19.0351 14.444 19.0351C11.3259 19.0351 8.88564 16.6051 8.88564 13.5002C8.88564 10.3952 11.3259 7.96518 14.444 7.96518C17.5621 7.96518 20.0024 10.3952 20.0024 13.5002ZM21.4937 7.69518C21.4937 8.50517 20.9514 9.04517 20.138 9.04517C19.3246 9.04517 18.7823 8.50517 18.7823 7.69518C18.7823 6.88518 19.3246 6.34518 20.138 6.34518C20.9514 6.34518 21.4937 7.02018 21.4937 7.69518ZM14.444 4.59019C12.8172 4.59019 9.42792 4.45519 8.07222 4.99519C7.12322 5.40019 6.3098 6.21018 6.03866 7.15518C5.49638 8.50517 5.63195 11.8802 5.63195 13.5002C5.63195 15.1201 5.49638 18.4951 6.03866 19.8451C6.3098 20.7901 7.12322 21.6001 8.07222 21.8701C9.42792 22.4101 12.9528 22.2751 14.444 22.2751C15.9353 22.2751 19.4601 22.4101 20.8158 21.8701C21.7648 21.4651 22.4427 20.7901 22.8494 19.8451C23.3917 18.3601 23.2561 14.9851 23.2561 13.5002C23.2561 12.0152 23.3917 8.50517 22.8494 7.15518C22.5783 6.21018 21.7648 5.40019 20.8158 5.13019C19.4601 4.45519 16.0709 4.59019 14.444 4.59019ZM25.2897 13.5002V17.9551C25.2897 19.5751 24.7474 21.1951 23.5273 22.5451C22.3071 23.7601 20.6803 24.3001 18.9179 24.3001H9.9702C8.34336 24.3001 6.71651 23.7601 5.36081 22.5451C4.27624 21.3301 3.59839 19.7101 3.59839 17.9551V13.5002V9.04517C3.59839 7.29018 4.27624 5.67018 5.36081 4.45519C6.71651 3.37519 8.34336 2.7002 9.9702 2.7002H18.9179C20.5447 2.7002 22.1715 3.24019 23.5273 4.45519C24.6118 5.67018 25.2897 7.29018 25.2897 9.04517V13.5002Z" fill="#555555"/>
</svg>
