<svg width="33" height="36" viewBox="0 0 33 36" fill="none" xmlns="http://www.w3.org/2000/svg">
<path d="M16.5366 0.839478C7.22008 0.839478 0 8.05703 0 17.8057C0 22.9047 1.97667 27.3111 5.19417 30.355C5.74972 30.8846 5.63528 31.1914 5.72976 34.4617C5.7372 34.6907 5.7974 34.9144 5.9051 35.1131C6.01281 35.3119 6.16476 35.4797 6.34769 35.6019C6.53062 35.7241 6.73898 35.797 6.95459 35.8142C7.1702 35.8315 7.38652 35.7925 7.58468 35.7008C11.1049 34.0576 11.1501 33.9278 11.7469 34.0999C21.9457 37.0753 33 30.1568 33 17.8057C33 8.05703 25.8538 0.839478 16.5366 0.839478ZM26.4659 13.8958L21.609 22.0464C21.4256 22.3529 21.1845 22.6159 20.9007 22.819C20.6169 23.0221 20.2966 23.1609 19.9599 23.2266C19.6231 23.2924 19.2772 23.2837 18.9438 23.2011C18.6104 23.1185 18.2966 22.9638 18.0223 22.7467L14.1581 19.681C13.9853 19.5437 13.7752 19.4694 13.5593 19.4694C13.3433 19.4694 13.1332 19.5437 12.9605 19.681L7.74635 23.873C7.05042 24.4323 6.13893 23.5486 6.60798 22.7679L11.4648 14.6173C11.6482 14.3107 11.8893 14.0476 12.1731 13.8445C12.4569 13.6413 12.7772 13.5025 13.1139 13.4368C13.4507 13.371 13.7966 13.3797 14.1301 13.4624C14.4635 13.545 14.7772 13.6998 15.0516 13.917L18.9145 16.982C19.0872 17.1193 19.2973 17.1936 19.5132 17.1936C19.7292 17.1936 19.9393 17.1193 20.112 16.982L25.3288 12.7942C26.0234 12.2314 26.9349 13.1144 26.4659 13.8958Z" fill="#F4B10B"/>
</svg>
